<?xml version="1.0" encoding="UTF-8"?>
<svg id="Layer_1" data-name="Layer 1" xmlns="http://www.w3.org/2000/svg" viewBox="0 0 243.7 81.21">
  <defs>
    <style>
      .cls-1 {
        fill: #fff;
      }

      .cls-2 {
        fill: #03ddff;
      }

      .cls-3 {
        fill: #0d1129;
      }
    </style>
  </defs>
  <g id="Layer_2" data-name="Layer 2">
    <g id="Layer_1-2" data-name="Layer 1-2">
      <path class="cls-1" d="m85.61,43.03h21.89c.93,0,1.86-.07,2.78-.23.76-.2,1.49-.51,2.17-.9.61-.46,1.08-1.09,1.35-1.8.39-.95.58-1.97.53-3,.11-1.35-.25-2.7-1-3.82-.79-.93-1.93-1.48-3.15-1.5v-.07c.49-.16.97-.36,1.43-.6.4-.19.74-.48,1-.83.33-.42.56-.9.68-1.42.16-.77.24-1.55.22-2.33,0-2.1-.6-3.67-1.95-4.57s-3.37-1.28-6.15-1.28h-19.8v22.35Zm6.9-8.85h12.29c.65-.02,1.29.1,1.88.37.43.37.65.93.6,1.5.05.52-.22,1.03-.68,1.28-.56.28-1.18.4-1.8.37h-12.29v-3.52Zm0-8.17h12.14c.54-.04,1.07.12,1.5.45.7.76.7,1.94,0,2.7-.45.26-.98.39-1.5.37h-12.14v-3.52Z"/>
      <rect class="cls-1" x="117.63" y="20.68" width="6.82" height="22.34"/>
      <path class="cls-1" d="m127.82,37.25c-.05,1.03.13,2.05.53,3,.28.78.81,1.44,1.5,1.88.83.42,1.71.72,2.62.9,1.37.19,2.75.29,4.13.3h8.32c1.9,0,3.81-.1,5.7-.3,1.16-.11,2.28-.45,3.3-1,.76-.5,1.34-1.24,1.65-2.1.34-1.19.49-2.43.45-3.67.06-1.32-.12-2.64-.53-3.9-.39-.9-1.08-1.64-1.95-2.1-1.21-.53-2.5-.83-3.82-.9-1.58-.15-3.9-.22-6.83-.22-1.94,0-3.44-.08-4.49-.08-.81-.03-1.61-.13-2.4-.3-.41-.02-.78-.21-1.05-.52-.17-.35-.25-.74-.23-1.13,0-.51.25-.99.68-1.27.59-.33,1.26-.49,1.94-.45h7.58c1.5,0,2.4.15,2.77.52.46.48.68,1.14.6,1.8h6.83v-.65c.03-.96-.07-1.92-.3-2.85-.17-.76-.57-1.46-1.13-2-.75-.64-1.65-1.08-2.62-1.27-1.5-.37-3.04-.55-4.58-.53h-9.59c-1.68-.01-3.36.16-5,.53-1.01.28-1.93.79-2.7,1.5-.57.57-.96,1.31-1.12,2.1-.17,1.01-.24,2.04-.23,3.07-.02,1.19.11,2.37.38,3.53.29.82.84,1.52,1.57,2,1.05.54,2.2.88,3.38,1,2.06.25,4.14.35,6.22.3,2.48,0,4.27,0,5.47.07.88-.02,1.76.05,2.63.23.67.15,1,.3,1.2.6.24.35.35.78.3,1.2.09.61-.21,1.21-.75,1.5-.69.28-1.43.41-2.18.38h-8.4c-.8.07-1.6-.09-2.32-.45-.47-.6-.71-1.35-.67-2.11h-6.83l-.03,1.39Z"/>
      <path class="cls-1" d="m186.68,35.23c-.04,1.37.19,2.73.68,4,.42,1,1.12,1.85,2,2.48.91.62,1.93,1.05,3,1.27,1.41.26,2.84.39,4.27.38h11c1.42.01,2.83-.17,4.2-.53.94-.28,1.81-.77,2.55-1.42.58-.58,1-1.3,1.2-2.1.25-.88.37-1.79.37-2.7v-2.1h-6.94c.01.56-.06,1.12-.23,1.65-.06.37-.28.7-.6.9-.36.25-.77.4-1.2.45-.45,0-1.12.07-2,.07h-7.27c-1.58,0-2.63-.3-3.15-1-.65-1.05-.94-2.29-.83-3.52v-2.41c-.09-1.19.23-2.38.9-3.37.6-.75,1.72-1.12,3.45-1.12h7.42c.85-.05,1.7.11,2.48.45.53.37.82,1,.75,1.65v.6h6.89c.02-1.39-.11-2.77-.37-4.13-.27-.98-.81-1.87-1.57-2.55-.98-.71-2.11-1.17-3.3-1.35-1.91-.34-3.84-.49-5.78-.45h-8c-1.43,0-2.86.12-4.27.38-1.08.19-2.11.62-3,1.27-.88.63-1.58,1.48-2,2.48-.49,1.27-.72,2.63-.68,4l.03,6.72Z"/>
      <polygon class="cls-1" points="217.5 26.23 227.17 26.23 227.17 43.03 234.07 43.03 234.07 26.23 243.67 26.23 243.67 20.68 217.5 20.68 217.5 26.23"/>
      <path class="cls-1" d="m85.6,60.04v-11.18h2.69v4.29h6.94v-4.29h2.71v11.2h-2.71v-4.7h-6.94v4.68h-2.69Z"/>
      <path class="cls-1" d="m125.89,56.21c.01.61-.05,1.21-.2,1.8-.11.44-.34.84-.66,1.16-.35.32-.78.55-1.24.66-.65.16-1.33.23-2,.21h-4.94c-.62.02-1.24-.04-1.84-.18-.48-.12-.92-.35-1.29-.68-.34-.32-.59-.73-.72-1.18-.16-.57-.24-1.16-.23-1.75v-3.39c-.02-.65.06-1.29.23-1.92.12-.46.36-.88.7-1.21.36-.32.79-.54,1.26-.64.66-.15,1.33-.22,2-.2h4.94c.79-.03,1.58.09,2.33.35.58.22,1.05.65,1.31,1.21.32.76.47,1.58.43,2.41l-.08,3.35Zm-10.47-.27c-.01.39.05.78.19,1.14.11.27.35.48.63.57.41.12.85.18,1.28.16h3.57c.45.02.89-.03,1.32-.16.28-.09.5-.29.62-.55.13-.38.19-.78.17-1.18v-2.85c.02-.41-.04-.82-.19-1.21-.13-.28-.36-.49-.65-.59-.42-.12-.86-.18-1.3-.16h-3.47c-.44-.02-.89.04-1.31.17-.29.1-.52.31-.64.59-.14.4-.21.82-.2,1.25l-.02,2.82Z"/>
      <path class="cls-1" d="m146.41,48.86c.75-.02,1.49.09,2.2.34.52.18.95.53,1.24,1,.29.55.43,1.16.4,1.78h-2.69c0-.3-.11-.58-.31-.8-.32-.2-.7-.28-1.07-.24h-4.52c-.87,0-1.3.38-1.3,1.16-.05.34.07.68.32.92.3.17.65.25,1,.22h4.91c.58,0,1.15.03,1.72.11.4.05.79.2,1.12.43.33.25.58.6.7,1,.17.59.25,1.21.23,1.82.03.67-.11,1.33-.39,1.94-.26.51-.7.9-1.23,1.11-.69.26-1.43.39-2.17.36h-5.43c-.76.03-1.53-.09-2.25-.34-.51-.18-.93-.53-1.19-1-.25-.56-.37-1.18-.35-1.8h2.75c0,.29.15.57.39.74.27.21.6.33.94.32h4.51c.46.03.92-.07,1.32-.29.31-.23.48-.61.43-1,0-.25-.04-.49-.14-.72-.13-.2-.32-.35-.55-.42-.37-.11-.75-.16-1.14-.15h-4c-.67,0-1.34-.04-2-.14-.45-.07-.88-.23-1.26-.49-.33-.25-.58-.6-.71-1-.16-.56-.24-1.14-.22-1.72,0-.5.07-.99.23-1.46.15-.4.4-.74.73-1,.38-.27.82-.46,1.28-.55.63-.13,1.28-.19,1.92-.18l4.58.05Z"/>
      <path class="cls-1" d="m162.01,48.86h12.15v2.23h-4.75v9h-2.69v-9h-4.71v-2.23Z"/>
      <path class="cls-1" d="m190.44,60.04h-2.69v-11.18h2.69v11.18Z"/>
      <path class="cls-1" d="m203.2,60.04v-11.18h4.52l6.86,9h.37v-9h2.69v11.2h-4.63l-6.77-9h-.37v9l-2.67-.02Z"/>
      <path class="cls-1" d="m240.86,52.3c.02-.39-.14-.76-.45-1-.49-.26-1.04-.37-1.59-.32h-4c-.61-.06-1.21.12-1.68.51-.37.52-.54,1.15-.49,1.78v2.7c-.01.41.05.82.19,1.2.12.28.35.49.63.59.44.13.89.19,1.35.17h4c.42.01.84-.02,1.26-.1.25-.03.49-.15.67-.33.15-.18.24-.4.26-.64v-1.37h-4.45v-2h7.14v3c.03.73-.11,1.45-.42,2.11-.28.52-.74.92-1.3,1.12-.76.26-1.57.38-2.37.35h-5.45c-.79.02-1.57-.11-2.31-.4-.59-.24-1.07-.69-1.37-1.25-.33-.68-.49-1.43-.46-2.18v-3.31c-.02-.82.13-1.63.44-2.39.26-.58.74-1.03,1.32-1.28.76-.3,1.57-.43,2.38-.4h5.4c.62,0,1.23.04,1.84.15.45.08.88.26,1.25.53.35.25.61.6.77,1,.19.55.28,1.14.26,1.72l-2.82.04Z"/>
      <rect class="cls-1" x="159.02" y="20.68" width="24.52" height="4.72"/>
      <rect class="cls-1" x="159.02" y="38.31" width="24.52" height="4.72"/>
      <rect class="cls-1" x="159.02" y="29.46" width="24.52" height="4.8"/>
      <rect class="cls-3" x="178.73" y="21.81" width="2.4" height="2.47"/>
      <rect class="cls-3" x="178.73" y="30.65" width="2.4" height="2.4"/>
      <rect class="cls-3" x="178.73" y="39.5" width="2.4" height="2.4"/>
    </g>
  </g>
  <g>
    <path class="cls-1" d="m37.05,81.21c-1.46,0-2.92-.36-4.21-1.03l-29.06-15.15C1.46,63.82.02,61.44.02,58.82L0,22.43c0-2.62,1.44-5,3.76-6.21L32.9,1.03c1.3-.68,2.75-1.03,4.21-1.03s2.92.36,4.21,1.03l30.66,15.98c2.32,1.21,3.76,3.59,3.76,6.2v34.73c.01,2.62-1.43,5-3.75,6.21l-30.73,16.02c-1.29.67-2.75,1.03-4.21,1.03Z"/>
    <path class="cls-3" d="m37.05,78.21c-.98,0-1.96-.24-2.82-.69l-29.06-15.15c-1.32-.69-2.15-2.06-2.15-3.55l-.02-36.39c0-1.49.83-2.86,2.15-3.55L34.29,3.69c.87-.45,1.85-.69,2.82-.69s1.96.24,2.82.69l30.65,15.98c1.32.69,2.15,2.06,2.15,3.55v34.73c.01,1.49-.81,2.86-2.14,3.55l-30.73,16.02c-.87.45-1.84.69-2.82.69h0Z"/>
    <path class="cls-2" d="m68.76,57.28c0,.37-.21.72-.54.89l-7.94,4.14-6.27-2.35v5.62l-10.48,5.46c-4.06,2.12-8.89,2.12-12.95,0l-23.02-12c-.34-.17-.54-.51-.54-.88l-.02-35.18c0-.37.21-.72.54-.89l23.1-12.04c4.06-2.12,8.89-2.12,12.95,0l10.46,5.45v5.62l6.27-2.35,7.88,4.11c.34.17.54.51.54.88l.02,33.52Z"/>
    <path class="cls-3" d="m67.36,24.16v32.77l-6.65,3.47v-14.37c0-.29-.25-.52-.54-.5l-7.24.53c-.26.02-.46.24-.46.5v18.15l-8.47,4.41-2.7,1.41s1.45-2.08,1.63-5.9v-15.16h0s.14-5.68-4.52-8.8c4.66-3.11,4.52-8.79,4.52-8.79h0v-14.62c0-4.31-1.65-6.68-1.65-6.68l1.65.86,1.05.55,8.49,4.42v17.12c0,.26.2.48.46.5l7.24.52c.29.02.54-.21.54-.5v-13.34l6.65,3.46Z"/>
    <path class="cls-3" d="m31.89,33.27v-7.96c0-.51-.48-.88-.98-.75l-3.94,1.07-3.06.82-8.63,2.33-2.22.6-.9.24v7.17l.9-.11,2.22-.26,8.63-1,3.06-.36,2.04-.23,1.67-.2c.69-.08,1.21-.67,1.21-1.36Zm-1.26-1.32l-1.62.27-2.04.33-3.06.5-8.63,1.41-2.22.36v-3.68l2.22-.53,8.63-2.08,3.06-.73,2.04-.49,1.62-.39v5.03Z"/>
    <polygon class="cls-3" points="23.91 29.98 23.91 31.65 15.28 33.21 15.28 31.88 23.91 29.98"/>
    <polygon class="cls-3" points="29.01 28.86 29.01 30.73 26.97 31.09 26.97 29.31 29.01 28.86"/>
    <path class="cls-3" d="m30.69,46.97l-1.67-.2-2.04-.23-3.06-.36-8.63-1-2.22-.26-.9-.11v7.17l.9.24,2.22.6,8.63,2.33,3.06.82,3.94,1.07c.49.13.98-.24.98-.75v-7.96c0-.7-.52-1.28-1.21-1.36Zm-.05,7.71l-1.62-.39-2.04-.49-3.06-.73-8.63-2.08-2.22-.53v-3.68l2.22.36,8.63,1.41,3.06.5,2.04.33,1.62.27v5.03Z"/>
    <polygon class="cls-3" points="23.92 51.62 23.92 49.95 15.29 48.39 15.29 49.72 23.92 51.62"/>
    <polygon class="cls-3" points="29.02 52.74 29.02 50.87 26.98 50.51 26.98 52.29 29.02 52.74"/>
  </g>
</svg>