<svg width="176" height="39" id="Layer_2" xmlns="http://www.w3.org/2000/svg" viewBox="0 0 258.03 34.97">
  <g id="Components">
    <g id="_699aef37-11f9-4841-96f4-7b933ad62369_5">
      <path d="m76.4866,34.9698c-3.4961,0-6.3984-1.1426-8.7065-3.4287-2.3081-2.2861-3.4624-5.1875-3.4624-8.7061,0-3.541,1.1602-6.4604,3.4795-8.7573,2.3193-2.2969,5.2271-3.4463,8.7231-3.4463,2.2407,0,4.3027.5273,6.1851,1.5801,1.8823,1.0537,3.3501,2.5547,4.4038,4.5049l-4.3701,2.5552c-.605-1.2554-1.457-2.2192-2.5547-2.8911-1.0981-.6729-2.3311-1.0088-3.6978-1.0088-2.0171,0-3.6924.6895-5.0254,2.0674-1.3335,1.3784-2,3.1665-2,5.3618,0,2.1973.6665,3.9834,2,5.3623,1.333,1.3779,3.0083,2.0674,5.0254,2.0674,1.3667,0,2.6104-.3418,3.7314-1.0254,1.1201-.6836,1.9717-1.6416,2.5547-2.874l4.3701,2.5205c-1.0537,1.9502-2.5215,3.457-4.4038,4.5215s-3.9668,1.5967-6.2524,1.5967Z" style="fill:#fff; stroke-width:0px;"/>
      <path d="m98.7727,34.9698c-2.6445,0-4.8403-.8574-6.5884-2.5713-1.748-1.7148-2.6221-3.8711-2.6221-6.4707,0-2.6221.8682-4.7852,2.605-6.4883,1.7368-1.7036,3.9385-2.5552,6.6055-2.5552s4.8687.8516,6.6055,2.5552c1.7363,1.7031,2.6055,3.8662,2.6055,6.4883,0,2.5996-.8691,4.7559-2.6055,6.4707-1.7368,1.7139-3.9385,2.5713-6.6055,2.5713Zm-3.1763-5.6475c.8403.874,1.8989,1.3115,3.1763,1.3115s2.3364-.4375,3.1768-1.3115,1.2607-2.0049,1.2607-3.3945-.415-2.5215-1.2437-3.3955c-.8296-.874-1.894-1.3115-3.1938-1.3115-1.2773,0-2.3359.4375-3.1763,1.3115-.8408.874-1.2607,2.0059-1.2607,3.3955s.4199,2.5205,1.2607,3.3945Z" style="fill:#fff; stroke-width:0px;"/>
      <path d="m120.9255,16.8843c2.375,0,4.3921.8574,6.0508,2.5718,1.6582,1.7148,2.4873,3.8721,2.4873,6.4717s-.8291,4.7559-2.4873,6.4707c-1.6587,1.7139-3.6758,2.5713-6.0508,2.5713-1.793,0-3.3394-.5156-4.6387-1.5459v1.1426h-4.7065V9.7583h4.7065v8.6724c1.2993-1.0308,2.8457-1.5464,4.6387-1.5464Zm-.7397,13.7495c1.3223,0,2.4038-.4316,3.2441-1.2949.8403-.8623,1.2607-2,1.2607-3.4111,0-1.4121-.4204-2.5498-1.2607-3.4121-.8403-.8623-1.9219-1.2949-3.2441-1.2949-1.5688,0-2.8687.583-3.8989,1.748v5.8828c1.0303,1.1885,2.3301,1.7822,3.8989,1.7822Z" style="fill:#fff; stroke-width:0px;"/>
      <path d="m145.1951,17.2876h4.7061v17.2788h-4.7061v-1.1426c-1.2998,1.0303-2.8467,1.5459-4.6396,1.5459-2.375,0-4.3926-.8574-6.0498-2.5713-1.6592-1.7148-2.4883-3.8711-2.4883-6.4707s.8291-4.7568,2.4883-6.4717c1.6572-1.7144,3.6748-2.5718,6.0498-2.5718,1.793,0,3.3398.5156,4.6396,1.5464v-1.1431Zm-3.8994,13.3462c1.5684,0,2.8682-.5938,3.8994-1.7822v-5.8828c-1.0312-1.165-2.3311-1.748-3.8994-1.748-1.3232,0-2.4033.4326-3.2441,1.2949-.8408.8623-1.2607,2-1.2607,3.4121,0,1.4111.4199,2.5488,1.2607,3.4111.8408.8633,1.9209,1.2949,3.2441,1.2949Z" style="fill:#fff; stroke-width:0px;"/>
      <path d="m154.4392,34.5665V9.7583h4.7061v24.8081h-4.7061Z" style="fill:#fff; stroke-width:0px;"/>
      <path d="m175.0789,30.129l.5713,4.0342c-1.2334.4922-2.5889.7393-4.0674.7393-4.2812,0-6.4209-2.2969-6.4209-6.8906v-6.5889h-3.3281v-4.1353h3.3281v-4.0342h4.7061v4.0342h5.1436v4.1353h-5.1436v6.0176c0,1.0977.2188,1.8936.6553,2.3857.4375.4941,1.127.7402,2.0674.7402.7617,0,1.5918-.1455,2.4883-.4375Z" style="fill:#fff; stroke-width:0px;"/>
      <polygon points="199.035 11.036 202.565 11.036 202.565 34.566 199.035 34.566 199.035 24.045 186.564 24.045 186.564 34.566 183.034 34.566 183.034 11.036 186.564 11.036 186.564 20.784 199.035 20.784 199.035 11.036" style="fill:#fff; stroke-width:0px;"/>
      <path d="m212.111,30.264c1.054,1.098,2.398,1.647,4.034,1.647s2.975-.555,4.017-1.664c1.042-1.11,1.563-2.527,1.563-4.253,0-1.703-.521-3.109-1.563-4.218-1.042-1.11-2.381-1.664-4.017-1.664s-2.98.554-4.034,1.664c-1.053,1.109-1.58,2.515-1.58,4.218,0,1.726.527,3.149,1.58,4.27Zm4.034,4.706c-2.599,0-4.756-.852-6.471-2.555-1.714-1.703-2.571-3.843-2.571-6.421s.857-4.711,2.571-6.403c1.715-1.692,3.872-2.538,6.471-2.538,2.577,0,4.723.846,6.438,2.538,1.714,1.692,2.571,3.826,2.571,6.403s-.857,4.718-2.571,6.421c-1.715,1.703-3.861,2.555-6.438,2.555Z" style="fill:#fff; stroke-width:0px;"/>
      <path d="m235.642,34.97c-1.479,0-2.891-.236-4.235-.706-1.345-.471-2.454-1.121-3.328-1.95l1.949-2.521c1.681,1.479,3.586,2.219,5.715,2.219,1.031,0,1.854-.208,2.471-.622.616-.415.924-.947.924-1.597,0-1.008-.908-1.726-2.723-2.151l-2.992-.673c-1.68-.381-2.913-.952-3.697-1.714-.785-.762-1.177-1.737-1.177-2.925,0-1.568.605-2.84,1.815-3.815,1.211-.975,2.835-1.462,4.875-1.462,2.958,0,5.288.874,6.992,2.622l-2.051,2.353c-1.501-1.367-3.216-2.051-5.143-2.051-1.008,0-1.793.191-2.353.572-.56.381-.84.896-.84,1.546,0,.471.201.863.605,1.177.403.313,1.131.594,2.185.84l2.958.672c1.703.381,2.935.964,3.697,1.748.762.785,1.143,1.793,1.143,3.026,0,1.636-.599,2.947-1.798,3.933-1.199.986-2.863,1.479-4.992,1.479Z" style="fill:#fff; stroke-width:0px;"/>
      <path d="m257.425,31.306l.605,2.823c-1.165.516-2.454.774-3.866.774-3.989,0-5.983-2.152-5.983-6.455v-8.101h-3.732v-2.891h3.732v-4.202h3.361v4.202h4.498v2.891h-4.498v7.732c0,1.299.252,2.252.756,2.857.505.605,1.295.908,2.37.908.919,0,1.838-.18,2.757-.538Z" style="fill:#fff; stroke-width:0px;"/>
      <path d="m40.976,8.49c8.072.582,14.449,7.323,14.449,15.543,0,.063,0,.127-.001.19.001.052.001.104.001.156,0,5.845-4.745,10.591-10.59,10.591H10.591c-5.845,0-10.591-4.746-10.591-10.591,0-4.595,2.934-8.511,7.029-9.975.161,1.135.4,2.269.707,3.4v.001c1.786,6.555,7.739,11.104,14.532,11.104,8.258.002,19.262.002,19.262.002h1.342v-2.683h-1.342s-11.004,0-19.261-.002c-5.584,0-10.476-3.738-11.944-9.125-.417-1.54-.698-3.083-.805-4.631C10.185,5.478,16.081,0,23.246,0c4.918,0,9.237,2.58,11.679,6.459-3.553,1.022-7.044,3.174-9.32,6.336l-.783,1.089,2.178,1.567.783-1.089c2.279-3.167,6.009-5.124,9.552-5.712.442-.072.891-.125,1.345-.158.383-.027.761-.036,1.132-.028l1.164.026Z" style="fill:#fff; fill-rule:evenodd; stroke-width:0px;"/>
    </g>
  </g>
</svg>